<?xml version="1.0" encoding="UTF-8"?>
<svg width="60px" height="60px" viewBox="0 0 60 60" version="1.1" xmlns="http://www.w3.org/2000/svg" xmlns:xlink="http://www.w3.org/1999/xlink">
    <title>运行状态</title>
    <g id="中阳" stroke="none" stroke-width="1" fill="none" fill-rule="evenodd">
        <g id="制冷-空调1" transform="translate(-1067.000000, -224.000000)" fill="#3CB2FF" fill-rule="nonzero">
            <g id="编组-3" transform="translate(176.000000, 94.000000)">
                <g id="分组-2" transform="translate(884.000000, 130.000000)">
                    <path d="M55.726,6.19037995 L55.714,6.20250606 C55.174,5.69927243 54.472,5.37793048 53.686,5.37793048 C52.048,5.37793048 50.734,6.72392886 50.71,8.38520614 C50.686,9.77364592 51.484,10.4769604 51.484,10.4769604 C57.226,14.9090542 61,21.8330639 61,29.6847211 C61,43.0598222 50.23,53.9369442 37,53.9369442 C23.764,53.9369442 13,43.0537591 13,29.6847211 C13,21.8330639 16.768,14.9090542 22.516,10.4769604 L22.516,10.4769604 C23.056,9.93128537 23.386,9.17946645 23.386,8.34882781 C23.386,6.68755053 22.054,5.34155214 20.41,5.34155214 C19.096,5.34155214 18.28,6.19644301 18.28,6.19644301 C11.458,11.7502021 7,20.1596605 7,29.6847211 C7,46.4005659 20.458,60 37,60 C53.536,60 67,46.4005659 67,29.6847211 C67,20.1596605 62.536,11.7502021 55.726,6.19037995 Z M37,33.0982215 C38.656,33.0982215 40,31.7461601 40,30.0666936 L40,3.03152789 C40,1.35812449 38.662,0 37,0 C35.338,0 34,1.35812449 34,3.03152789 L34,30.0606306 C34,31.740097 35.344,33.0982215 37,33.0982215 Z" id="运行状态"></path>
                </g>
            </g>
        </g>
    </g>
</svg>