<?xml version="1.0" encoding="utf-8"?>
<!-- Generator: Adobe Illustrator 16.0.0, SVG Export Plug-In . SVG Version: 6.00 Build 0)  -->
<!DOCTYPE svg PUBLIC "-//W3C//DTD SVG 1.1//EN" "http://www.w3.org/Graphics/SVG/1.1/DTD/svg11.dtd">
<svg version="1.1" id="图层_1" xmlns="http://www.w3.org/2000/svg" xmlns:xlink="http://www.w3.org/1999/xlink" x="0px" y="0px"
	 width="186px" height="183px" viewBox="0 0 186 183" enable-background="new 0 0 186 183" xml:space="preserve">
<g>
	<path fill="#20CB25" d="M93.628,73.406c2.906-2.334,0.809-6.55-2.574-6.73c-1.922-0.104-4.029,1.166-4.461,3.109
		C85.714,73.75,90.882,75.61,93.628,73.406z"/>
	<path fill="#20CB25" d="M101.507,89.672c-1.658-0.01-3.311,1.574-3.27,3.135c0.041,1.547,1.594,3.059,3.182,3.1
		c2.014,0.053,3.811-1.389,3.846-3.082C105.298,91.127,103.575,89.681,101.507,89.672z"/>
	<path fill="#20CB25" d="M70.298,66.953c-2.637-1.144-6.164,1.129-5.795,4.106c0.195,1.578,1.479,2.938,3.025,3.308
		c0.482,0.116,0.977,0.139,1.459,0.082c1.936-0.23,3.682-1.752,3.703-3.812C72.708,69.086,71.722,67.569,70.298,66.953z"/>
	<path fill="#20CB25" d="M118.921,89.674c-1.719,0.012-3.262,1.507-3.24,3.137c0.021,1.645,1.576,3.098,3.305,3.082
		c1.955-0.02,3.668-1.443,3.691-3.074C122.702,91.115,120.964,89.66,118.921,89.674z"/>
	<path fill="#20CB25" d="M93.001,7.5c-46.393,0-84,37.607-84,84s37.607,84,84,84s84-37.607,84-84S139.394,7.5,93.001,7.5z
		 M80.755,107.031c-3.922,0.217-7.73-0.512-11.527-1.318c-0.773-0.164-1.412-0.094-2.107,0.264c-2.75,1.418-5.521,2.791-8.287,4.178
		c-0.463,0.232-0.936,0.445-1.805,0.855c0.809-2.479,1.477-4.561,2.17-6.631c0.924-2.756,0.914-2.729-1.363-4.609
		c-4.771-3.939-8.559-8.589-9.775-14.824c-1.889-9.683,1.297-17.738,8.758-23.888c10.016-8.253,21.529-9.727,33.736-6.108
		c8.127,2.408,14.549,7.199,18.617,14.824c0.672,1.262,1.166,2.598,1.576,3.962c0.492,1.626,0.445,1.659-1.213,1.583
		c-6.986-0.314-13.395,1.453-18.826,5.893c-7.775,6.354-10.943,14.521-8.811,24.488C82.157,106.91,81.69,106.98,80.755,107.031z
		 M132.462,111.838c-1.598,2.072-3.43,3.91-5.504,5.492c-0.795,0.605-0.959,1.199-0.645,2.135c0.674,2.033,1.246,4.107,1.857,6.164
		c-0.104,0.074-0.209,0.148-0.313,0.225c-2.105-1.154-4.238-2.248-6.295-3.477c-1.301-0.777-2.508-0.988-4.021-0.58
		c-6.988,1.895-13.857,1.406-20.404-1.705c-7.656-3.639-12.941-9.367-13.836-18.08c-0.939-9.164,3.373-15.898,10.895-20.711
		c12.152-7.776,29.387-5.057,38.197,5.931C138.532,94.893,138.554,103.936,132.462,111.838z"/>
</g>
</svg>
